<?xml version="1.0" encoding="UTF-8" standalone="no"?>
<!-- Created with Inkscape (http://www.inkscape.org/) -->

<svg
   width="1920"
   height="1080"
   viewBox="0 0 1920 1080"
   version="1.1"
   id="svg5"
   inkscape:export-filename="Rastergrafik.png"
   inkscape:export-xdpi="96"
   inkscape:export-ydpi="96"
   inkscape:version="1.2.2 (732a01da63, 2022-12-09)"
   sodipodi:docname="mirador.svg"
   xmlns:inkscape="http://www.inkscape.org/namespaces/inkscape"
   xmlns:sodipodi="http://sodipodi.sourceforge.net/DTD/sodipodi-0.dtd"
   xmlns="http://www.w3.org/2000/svg"
   xmlns:svg="http://www.w3.org/2000/svg">
  <sodipodi:namedview
     id="namedview7"
     pagecolor="#ffffff"
     bordercolor="#999999"
     borderopacity="1"
     inkscape:showpageshadow="0"
     inkscape:pageopacity="0"
     inkscape:pagecheckerboard="0"
     inkscape:deskcolor="#d1d1d1"
     inkscape:document-units="px"
     showgrid="false"
     inkscape:zoom="0.51592606"
     inkscape:cx="963.31633"
     inkscape:cy="573.72562"
     inkscape:window-width="1920"
     inkscape:window-height="986"
     inkscape:window-x="-11"
     inkscape:window-y="-11"
     inkscape:window-maximized="1"
     inkscape:current-layer="layer1" />
  <defs
     id="defs2" />
  <g
     inkscape:label="Ebene 1"
     inkscape:groupmode="layer"
     id="layer1">
    <rect
       style="fill:#008000;fill-rule:evenodd;stroke-width:1.95576"
       id="rect6289"
       width="2003.7563"
       height="1258.4009"
       x="-30.294556"
       y="-115.5141" />
    <rect
       style="fill:#000000;stroke-width:1.47492"
       id="rect6500"
       width="113.6083"
       height="50.739189"
       x="1233.0758"
       y="144.32202"
       ry="0" />
    <rect
       style="fill:#000000;stroke-width:1.30871"
       id="rect6500-2"
       width="104.40156"
       height="43.470703"
       x="47.292271"
       y="-1230.059"
       ry="0"
       transform="rotate(90)" />
    <rect
       style="fill:#000000;stroke-width:1.11392"
       id="rect6500-2-8"
       width="59.151226"
       height="55.584843"
       x="1347.1482"
       y="70.672112"
       ry="0" />
    <rect
       style="fill:#502d16;stroke-width:1.30648"
       id="rect6451"
       width="106.04596"
       height="43.235558"
       x="1237.8972"
       y="148.17421"
       ry="5.0359707" />
    <rect
       style="fill:#502d16;stroke-width:1.133"
       id="rect6451-6"
       width="95.870087"
       height="35.967075"
       x="-148.23808"
       y="-1226.0649"
       ry="4.1893559"
       transform="matrix(0,-1,-1,0,0,0)" />
    <rect
       style="fill:#502d16;stroke-width:0.911998"
       id="rect6451-6-2"
       width="49.993259"
       height="44.689255"
       x="1351.5974"
       y="76.663216"
       ry="5.2052937" />
    <path
       style="fill:none;stroke:#000000;stroke-width:1.14042px;stroke-linecap:butt;stroke-linejoin:miter;stroke-opacity:1"
       d="m 1227.6661,329.51607 c 30.3447,121.72942 169.0634,101.44119 62.8569,151.03464 -106.2066,49.59347 -158.2262,105.94968 -123.5465,171.32289 34.6797,65.37319 229.753,54.10195 110.5416,151.03463 C 1158.3066,899.8409 932.88859,1138.7912 878.70149,1059.8925 824.51449,980.99384 848.3568,920.12914 807.17464,913.3664 765.9925,906.60365 286.97913,595.51738 369.34342,591.00888 c 82.36429,-4.50849 34.6797,-193.86535 34.6797,-193.86535"
       id="path6653"
       class="UnoptimicedTransforms"
       transform="translate(9.6913112,-96.913112)" />
    <path
       style="fill:#0000ff"
       id="path6844"
       d="m 1926.5312,191.19756 c -6.919,-0.51263 -13.8331,-1.41445 -20.779,-1.32533 -4.6544,0.10303 -9.175,1.15083 -13.6141,2.47176 -5.166,2.01738 -10.3769,3.89818 -15.7494,5.28388 -4.1986,0.8067 -8.2902,2.0741 -12.3845,3.28779 -4.9204,1.55978 -10.0923,1.65922 -15.182,2.16101 -6.2608,0.71339 -12.4478,2.00632 -18.6333,3.19832 -7.5009,1.73968 -15.2279,1.81061 -22.8571,2.53152 -6.8038,0.67217 -13.4221,2.46835 -20.0286,4.1485 -7.212,2.4865 -14.5653,4.0766 -22.1361,4.90273 -10.2571,0.86928 -20.5137,1.65229 -30.7975,2.12951 -8.4552,0.37008 -16.9188,0.45692 -25.3809,0.48263 -5.8052,0.71379 -10.4197,-1.86225 -15.4004,-4.34947 -4.31,-2.51327 -8.5813,-5.08451 -12.9965,-7.42955 -6.903,-3.21633 -14.5881,-4.37207 -21.9789,-6.01916 -7.8735,-1.4428 -15.6844,-3.26716 -23.6053,-4.44044 -5.9523,-0.76 -11.945,-0.90679 -17.9106,-1.53102 -7.5601,-1.33539 -15.1752,-2.29475 -22.776,-3.36102 -7.9668,-1.12487 -16.0007,-1.55531 -24.034,-1.82543 -6.1125,-0.34432 -12.173,-0.12688 -18.2386,0.63636 -5.2197,0.89613 -10.0781,3.1662 -14.7778,5.52507 -7.0142,3.71508 -13.7739,7.86813 -20.6156,11.89248 -0.6347,0.37336 -2.5422,1.48789 -1.9051,1.11858 3.5572,-2.06192 7.1101,-4.13096 10.6652,-6.19644 -4.4851,2.32747 -9.0487,4.4871 -13.7397,6.36419 -7.5943,2.97489 -15.6028,4.66655 -23.4177,6.94359 -6.1085,1.71319 -11.9894,4.10291 -18.1751,5.53967 -4.3083,0.68569 -8.6401,1.14037 -12.9542,1.813 -4.8325,0.77041 -9.7289,0.9306 -14.6115,1.06042 -7.2137,0.11668 -14.4287,0.0892 -21.6431,0.0863 -6.6491,-0.008 -13.2982,-0.0202 -19.9473,-0.0178 -6.9417,0.006 -13.8834,0.006 -20.8251,-0.003 -5.0709,0.0145 -9.7303,-1.54764 -14.2859,-3.61277 -3.7591,-2.08519 -7.1185,-4.67607 -10.4684,-7.3414 -3.3593,-2.65298 -7.3286,-3.7382 -11.4858,-4.30393 -3.8788,-0.38693 -7.7832,-0.34016 -11.6762,-0.32924 -5.5254,-0.15399 -10.9926,0.15139 -16.4685,0.85791 -5.5035,0.60607 -11.0181,1.22101 -16.4435,2.34622 -4.7061,1.06428 -9.0746,3.17844 -13.4944,5.05009 -4.6435,2.01075 -9.2767,4.04214 -13.9391,6.0093 -3.6952,1.84679 -7.7299,2.45555 -11.7432,3.16312 -5.1821,1.07466 -10.4485,1.53941 -15.7241,1.81654 -5.7513,0.17035 -11.5136,0.37478 -17.2609,0.0488 -6.5587,-0.91721 -12.7987,-3.39939 -18.9707,-5.71822 -4.4921,-1.83304 -8.5166,-4.54368 -12.4649,-7.31941 -2.9889,-1.71694 -5.4795,-4.13492 -8.3718,-5.98035 -4.3717,-2.3895 -8.8443,-4.57066 -13.4025,-6.5797 -4.8841,-2.33659 -9.8794,-4.32543 -15.0271,-5.98923 -5.8348,-1.82252 -11.9197,-2.49586 -17.9914,-2.90529 -6.9765,-0.34575 -13.9646,-0.24077 -20.9469,-0.24021 -8.8831,0.009 -17.7531,-0.23112 -26.5932,0.74916 -6.9017,0.7247 -13.4918,2.94551 -19.7436,5.87874 -4.8028,2.37055 -9.4356,5.06095 -14.2018,7.50493 -9.4087,3.98141 -18.0234,9.60065 -26.7993,14.76 -4.2146,2.47924 -15.281,9.64293 3.9177,-2.04087 0.9968,-0.60663 -2.0595,1.09822 -3.1023,1.6218 -1.9705,0.98932 -4.5766,2.18369 -6.5681,3.11052 -5.2925,2.46815 -10.9376,4.00895 -16.4595,5.86046 -5.2243,1.90725 -10.54806,3.39426 -16.02588,4.34595 -5.28194,0.68345 -10.51667,1.64304 -15.81298,2.22323 -4.43166,0.77632 -8.81942,1.67657 -13.30278,2.1076 -6.79112,0.46544 -13.60604,0.42302 -20.40957,0.45295 -8.47152,-0.01 -16.79006,-1.23196 -24.87714,-3.70954 -0.9553,-0.38782 -1.92333,-0.74564 -2.86588,-1.16347 -2.63677,-1.16886 -3.20083,-1.70827 -6.0001,-2.70035 -4.36408,-1.54667 -8.90515,-2.13784 -13.46197,-2.79706 -7.01407,-0.7233 -14.00285,-1.74088 -20.96054,-2.88489 -6.76011,-1.45098 -13.36113,-3.52799 -20.05551,-5.23615 -9.26654,-2.56822 -18.66034,-4.6235 -27.92577,-7.19466 -8.1873,-2.35576 -16.51033,-4.17707 -24.76946,-6.24416 -7.93717,-1.99442 -16.05648,-3.11187 -24.12891,-4.40252 -9.9411,-1.5472 -19.87769,-2.94421 -29.91532,-3.67772 -9.03784,-0.14187 -18.21546,-1.37308 -27.23747,-0.27917 -2.08185,0.25243 -4.13595,0.69654 -6.20393,1.04481 -10.94765,2.40577 -21.59355,6.11911 -31.88965,10.52085 -7.88746,3.24337 -15.43246,7.19481 -22.99062,11.12318 -10.61662,5.45368 -20.41111,12.18324 -30.24422,18.87381 -4.46037,4.16842 -22.38864,14.45888 0.3803,1.08921 -5.51985,2.76221 -11.20804,5.17359 -16.83385,7.71296 -6.64536,2.95368 -13.38188,5.7554 -20.41692,7.63254 -4.84851,1.2254 -9.8354,1.52258 -14.81199,1.64478 -6.34748,0.65551 -12.16801,-1.45611 -18.04617,-3.53318 -6.43454,-2.13313 -12.59615,-5.10289 -18.49266,-8.43365 -4.74799,-2.82819 -8.79725,-6.61301 -13.11183,-10.02934 -3.79029,-2.73488 -8.07815,-4.7277 -12.58162,-5.9443 -5.80084,-1.10033 -11.75142,-1.11395 -17.63753,-1.17368 -6.74946,-0.0331 -13.55633,0.45913 -20.12726,2.04278 -7.4925,2.55912 -14.07296,7.10161 -20.72143,11.35407 -2.69441,1.72339 -5.04829,4.89373 -7.21648,7.20893 -4.01788,4.12417 -7.57657,8.65058 -11.57433,12.78632 -2.89388,4.00572 -5.84387,7.99001 -8.75722,11.99474 -3.75258,5.7888 -8.03844,11.20142 -12.22975,16.67338 -4.24154,5.09477 -9.24249,9.41952 -14.89438,12.86154 19.52453,-10.67306 10.09325,-5.70504 4.92847,-4.34921 -3.15209,0.82746 -6.31921,1.38865 -9.53604,1.89132 -5.91961,1.01229 -11.69404,1.18671 -17.55556,-0.0926 -5.54411,-1.64742 -10.81762,-4.20252 -16.02612,-6.70455 -5.58788,-2.83976 -10.54076,-6.65706 -15.58267,-10.32963 -5.33843,-3.81136 -11.45348,-6.24675 -17.28103,-9.17317 -4.55578,-1.97031 -8.59129,-4.80225 -12.64835,-7.59549 -4.49722,-3.14488 -8.77001,-6.58104 -13.29848,-9.68517 -4.85075,-3.19108 -10.0662,-5.68244 -15.60694,-7.39265 -7.96961,-2.15506 -16.09055,-3.69537 -24.27748,-4.72807 -8.38347,-0.9549 -16.82967,-1.13444 -25.25903,-1.21218 -8.77335,-0.0428 -17.54688,-0.0211 -26.3203,-0.0173 -7.84403,0.40699 -15.6819,0.98312 -23.46359,2.06129 -9.97378,1.51613 -19.64383,4.42087 -29.32541,7.16951 -8.81974,2.71269 -17.65193,5.38473 -26.53507,7.88263 -8.62286,2.20422 -17.00452,5.22468 -25.54357,7.7071 -8.23826,2.49545 -16.430016,5.14021 -24.782059,7.23292 -6.663429,1.55393 -13.225729,3.38075 -19.605349,5.85521 -4.086874,1.70403 -8.020921,3.73771 -11.98199,5.70861 -4.672742,2.34896 -9.527056,4.3268 -14.32492,6.4085 -5.224452,2.16986 -10.563671,4.04168 -15.777112,6.23824 -3.623968,1.60662 -7.118721,3.42067 -10.785514,4.93226 -0.478718,0.21476 -0.957435,0.42951 -1.436152,0.64426 0,0 -11.76476779,9.31917 -11.76476779,9.31917 v 0 c 0.4838926,-0.21054 0.96778519,-0.42108 1.45167779,-0.63162 1.6093704,-0.81251 3.297336,-1.25843 4.9202721,-2.04258 1.0605092,-0.5124 2.6372176,-1.43838 3.6423729,-2.01281 0.732842,-0.35652 1.505106,-0.62555 2.257659,-0.93833 5.165448,-2.33117 10.539382,-4.13895 15.794094,-6.25547 4.786761,-2.0764 9.638399,-4.04333 14.319802,-6.32478 4.002605,-1.88679 7.878453,-4.03027 11.930651,-5.81747 6.392156,-2.51886 12.881334,-4.62647 19.605716,-6.10435 8.355335,-2.00244 16.546041,-4.60122 24.750743,-7.14243 8.602006,-2.37156 16.948576,-5.61731 25.617556,-7.77356 8.90797,-2.44157 17.75491,-5.10062 26.55936,-7.8917 9.6231,-2.71864 19.20086,-5.69801 29.10592,-7.2511 7.75137,-1.15003 15.54952,-1.73804 23.36822,-2.25124 8.77386,-0.0219 17.54783,-0.0522 26.32166,-0.004 8.39972,0.0852 16.81568,0.18051 25.17753,1.06657 8.11634,0.96011 16.15585,2.46565 24.05301,4.58467 5.46114,1.53807 10.55389,3.95975 15.33902,7.01133 4.53553,3.09093 8.83271,6.48286 13.26022,9.72084 4.1636,2.74596 8.14403,5.80687 12.82533,7.7034 5.74753,2.92469 11.80189,5.29759 17.12458,8.99702 5.14048,3.66312 10.10117,7.59769 15.72426,10.53383 5.23713,2.6443 10.67035,5.0686 16.2025,7.00572 6.36988,1.51593 11.42196,1.58199 17.92185,0.50867 12.25096,-1.68483 19.16939,-4.16199 30.4125,-11.86434 5.54817,-3.67772 10.51815,-8.0981 14.66034,-13.33341 4.18148,-5.50144 8.43041,-10.95428 12.25782,-16.71288 2.94778,-3.95245 5.72614,-8.04457 8.86509,-11.83922 3.90245,-4.19301 7.49978,-8.66256 11.51059,-12.75987 1.57514,-1.64021 3.08558,-3.27598 4.78528,-4.7921 0.82891,-0.73937 3.57924,-2.58678 2.57191,-2.11876 -20.71261,9.62337 -9.39682,5.56484 -4.98056,3.1484 6.43453,-1.85876 13.21254,-2.32983 19.8895,-2.36435 5.79892,0.0534 11.64099,0.0299 17.38465,0.92044 4.38666,1.01465 8.53051,2.86278 12.25002,5.4069 4.38486,3.44943 8.49886,7.26447 13.26707,10.19609 5.93588,3.41151 12.18166,6.44659 18.67142,8.63179 5.94268,2.11237 11.83615,4.63354 18.28068,4.02468 5.05026,-0.0747 10.11654,-0.2601 15.0613,-1.40203 7.11621,-1.73605 13.8988,-4.50445 20.59368,-7.44974 5.63289,-2.4857 11.24135,-5.02107 16.847,-7.56497 8.64274,-4.98469 17.394,-9.57338 25.11487,-15.9092 4.51346,-3.05254 27.17272,-17.71951 4.81705,-4.14821 7.54763,-3.97564 15.08953,-7.95711 22.97282,-11.24337 10.22347,-4.54428 20.86442,-8.25967 31.75148,-10.85365 4.92618,-0.91335 6.58518,-1.4185 11.4677,-1.60683 7.22315,-0.27862 14.48424,0.43939 21.70075,0.59296 10.01097,0.68504 19.91773,2.03305 29.82776,3.58178 8.01925,1.27217 16.06173,2.47565 23.96545,4.3542 8.26683,2.11119 16.65345,3.76534 24.85836,6.13736 9.24228,2.6121 18.62045,4.67376 27.86231,7.28563 6.71944,1.66968 13.32234,3.78238 20.06716,5.36363 6.97468,1.27459 14.05019,2.09285 21.09555,2.85066 4.43632,0.59452 8.90269,1.09693 13.16735,2.53868 2.93619,0.99264 3.22812,1.43419 5.98459,2.70993 0.97339,0.45051 1.97258,0.84304 2.95887,1.26456 8.17317,2.61819 16.60716,3.91358 25.19708,4.0391 6.78714,0.004 13.58103,0.0755 20.36203,-0.26222 4.50186,-0.34726 8.93209,-1.04697 13.32821,-2.09354 5.32341,-0.529 10.57254,-1.49855 15.87339,-2.15928 5.53009,-0.85387 10.92236,-2.20727 16.17645,-4.14762 5.54043,-1.92873 11.24013,-3.40459 16.61403,-5.78477 10.8478,-4.98887 21.2385,-10.82091 31.2628,-17.32573 -21.3101,12.03432 -4.0931,1.89435 1.2557,-0.0396 4.8214,-2.36016 9.4337,-5.10246 14.217,-7.53211 6.1124,-3.14103 12.6914,-5.46127 19.5288,-6.34247 8.7884,-1.16606 17.6139,-0.87019 26.4633,-0.87535 6.9404,-0.007 13.8842,-0.0305 20.821,0.21794 5.9862,0.32849 11.9981,0.87846 17.7703,2.59934 5.107,1.66707 10.1241,3.48031 14.949,5.87266 4.5234,1.91684 8.8969,4.12552 13.2178,6.45865 2.9649,1.68273 5.3226,4.24899 8.3442,5.869 4.0314,2.87111 8.176,5.61316 12.7287,7.59874 6.2604,2.39989 12.6265,4.80939 19.2214,6.06862 5.768,0.52311 11.5636,0.19341 17.3485,0.10898 5.3016,-0.2149 10.5988,-0.60111 15.816,-1.62125 4.0214,-0.82263 8.1932,-1.05014 11.9477,-2.90075 4.6272,-2.07404 9.3487,-3.92831 13.9531,-6.05116 4.4171,-1.80342 8.7136,-3.99428 13.3336,-5.23772 5.3387,-1.38342 10.8823,-1.85343 16.3529,-2.45925 5.4295,-0.7405 10.8285,-1.30281 16.3232,-0.98882 3.8567,-0.0192 7.7195,-0.0762 11.5702,0.18211 3.9534,0.39001 7.793,1.15557 11.046,3.60575 3.4614,2.70861 6.8207,5.45113 10.6666,7.62567 4.6652,2.23631 9.4618,4.00169 14.704,4.11531 6.9425,-0.008 13.885,-0.009 20.8275,5.1e-4 6.6549,0.006 13.3097,0.002 19.9646,0.005 7.2071,0.005 14.4142,0.008 21.6211,-0.0349 4.9064,-0.0526 9.8282,-0.19451 14.6942,-0.87333 4.3387,-0.65557 8.6527,-1.29792 13.0169,-1.74266 6.2911,-1.2897 12.2026,-3.72865 18.3492,-5.53625 7.7811,-2.34406 15.7751,-3.98207 23.4135,-6.77506 4.724,-1.83677 9.3075,-3.92832 13.8451,-6.19046 4.9752,-2.86116 9.9601,-5.70563 14.9256,-8.58347 0.6385,-0.37001 2.5296,-1.52007 1.8857,-1.15968 -3.6444,2.03981 -7.2542,4.14097 -10.8886,6.19864 -6.4248,3.63746 12.0881,-6.76678 5.8914,-3.31965 4.6492,-2.36061 9.3582,-4.75151 14.4753,-5.92861 6.0393,-0.8202 12.0479,-1.28675 18.1527,-0.86875 8.0132,0.20565 16.0301,0.57826 23.9803,1.66352 7.5947,1.06627 15.2134,1.98926 22.7478,3.43808 5.9582,0.66913 11.922,0.90448 17.889,1.48683 7.939,1.07188 15.7491,2.91084 23.6394,4.27582 7.2608,1.60584 14.7402,2.89887 21.6154,5.7909 4.4522,2.3027 8.7235,4.8953 13.0134,7.462 5.1233,2.4983 9.8489,5.62995 15.8376,4.88717 8.5102,-0.0585 17.0223,-0.14516 25.5258,-0.51145 10.2715,-0.48752 20.5212,-1.21007 30.7712,-2.0095 7.6115,-0.72254 15.0593,-2.04427 22.2573,-4.72263 6.5807,-1.65329 13.1452,-3.5175 19.8986,-4.31777 7.6232,-0.87049 15.3784,-0.72698 22.9014,-2.39122 6.1471,-1.27284 12.346,-2.45063 18.5596,-3.31149 5.1011,-0.59174 10.3085,-0.46394 15.2849,-1.90908 4.1095,-1.17133 8.1719,-2.58393 12.3766,-3.35909 5.396,-1.27196 10.6693,-3.03129 15.7823,-5.17107 4.3149,-1.53316 8.8331,-2.53799 13.4067,-2.84182 6.8857,-0.38009 13.7729,0.64345 20.6291,1.18766 0,0 12.1871,-8.67015 12.1871,-8.67015 z" />
  </g>
</svg>
